<svg id="Layer_2" data-name="Layer 2" xmlns="http://www.w3.org/2000/svg" viewBox="0 0 81.86 54.62"><title>bird</title><path d="M81.86,7.15C81,5.61,77.6,5.38,73,5.77,57.58-5.44,49.05.9,43.3,14.33,32.77,20.61,23.59,31,14.68,42.27L1.45,49.33,0,52.14,5.55,49l-.3,2,6.69-4c3.63,0,7.25,0,9.2-.6a11.48,11.48,0,0,1,6.77,2.06,28.09,28.09,0,0,0,14.21,6.25c13.15,0,35.44-19.65,27-37.3C67.67,11.39,73.91,8.89,81.86,7.15ZM64.44,8.5c-1.63-.26-2.82-1.35-2.65-2.44s1.63-1.77,3.27-1.52S67.88,5.89,67.72,7,66.08,8.75,64.44,8.5Z"/></svg>