<svg xmlns="http://www.w3.org/2000/svg" viewBox="0 0 91 42"><defs><style>.cls-1{opacity:0.79;}</style></defs><title>car</title><g id="Layer_2" data-name="Layer 2" class="cls-1"><circle cx="18.5" cy="31.5" r="10.5"/><circle cx="73.96" cy="30.92" r="10.5"/><rect x="39" y="33" width="18" height="2" rx="1"/><path d="M90,19l-1-9A215.66,215.66,0,0,0,65,2L64,0H61V1L45,2,31,12,4,16,2,22H0v6l3,2v3l4-2c.55-3.39,1.26-6.53,3-8,3.74-4.48,11-4,15-2s5.15,6.49,6,10H62c.35-4.85,1.7-8.8,5-11,4.28-2.36,10-3,15,1a11.88,11.88,0,0,1,4,9l3-1,1-4,1-1V21ZM59,11,40,12V10l8-6c4.63-.79,8.53-1,11,0C59.71,7.5,59.74,9.89,59,11Zm22,0H69c-2.5-.06-3.11-3-3-7L82,9C84,10,82.86,11.07,81,11Z"/></g></svg>