<svg id="Layer_1" data-name="Layer 1" xmlns="http://www.w3.org/2000/svg" viewBox="0 0 40 120"><defs><style>.cls-1{fill:#840000;}</style></defs><circle class="cls-1" cx="3.5" cy="4.5" r="2.5"/><circle class="cls-1" cx="5.5" cy="26.5" r="2.5"/><circle class="cls-1" cx="7.5" cy="48.5" r="2.5"/><circle class="cls-1" cx="5.5" cy="70.5" r="2.5"/><circle class="cls-1" cx="3.5" cy="95.5" r="2.5"/><circle class="cls-1" cx="2.5" cy="117.5" r="2.5"/><circle class="cls-1" cx="13.5" cy="16.5" r="2.5"/><circle class="cls-1" cx="15.5" cy="33.5" r="2.5"/><circle class="cls-1" cx="17.5" cy="49.5" r="2.5"/><circle class="cls-1" cx="15.5" cy="65.5" r="2.5"/><circle class="cls-1" cx="13.5" cy="85.5" r="2.5"/><circle class="cls-1" cx="12.5" cy="101.5" r="2.5"/><circle class="cls-1" cx="24.5" cy="4.5" r="2.5"/><circle class="cls-1" cx="27.5" cy="26.5" r="2.5"/><circle class="cls-1" cx="30.5" cy="48.5" r="2.5"/><circle class="cls-1" cx="31.5" cy="70.5" r="2.5"/><circle class="cls-1" cx="26.5" cy="95.5" r="2.5"/><circle class="cls-1" cx="23.5" cy="117.5" r="2.5"/><circle class="cls-1" cx="34.5" cy="4.5" r="2.5"/><circle class="cls-1" cx="33.5" cy="117.5" r="2.5"/><circle class="cls-1" cx="34.5" cy="95.5" r="2.5"/></svg>